# xmcd CD database file
#
# Track frame offsets:
#	183
#	28108
#	75198
#	82058
#	98058
#	101988
#	108208
#	146508
#	160928
#	168483
#	202608
#	209583
#	217338
#	228528
#	264533
#	269673
#
# Disc length: 3850 seconds
#
# Revision: 0
# Processed by: cddbd v1.5.1PL2 Copyright (c) Steve Scherf et al.
# Submitted via: CDex 1.51
#
DISCID=e40f0810
DTITLE=Luis Agudo and Friends - Dona Fia
DYEAR=1993
DGENRE=Jazz
TTITLE0=Dona Fia
TTITLE1=Maya's song
TTITLE2=Menino
TTITLE3=Owen
TTITLE4=Ayrton
TTITLE5=Arfang
TTITLE6=Via libera
TTITLE7=Malabo
TTITLE8=Madre de las Palmas (tieta de agreste)
TTITLE9=Mambo groove
TTITLE10=Sonhar
TTITLE11=Batuque na batera quente (drum solo)
TTITLE12=Salgueiro
TTITLE13=Estudo misterioso
TTITLE14=Togo
TTITLE15=Guajira
EXTD=YEAR: 1993
EXTT0=
EXTT1=
EXTT2=
EXTT3=
EXTT4=
EXTT5=
EXTT6=
EXTT7=
EXTT8=
EXTT9=
EXTT10=
EXTT11=
EXTT12=
EXTT13=
EXTT14=
EXTT15=
PLAYORDER=
